<?xml version="1.0" standalone="no"?>
<!DOCTYPE svg PUBLIC "-//W3C//DTD SVG 20010904//EN"
 "http://www.w3.org/TR/2001/REC-SVG-20010904/DTD/svg10.dtd">
<svg version="1.0" xmlns="http://www.w3.org/2000/svg"
 width="152.000000pt" height="248.000000pt" viewBox="0 0 152.000000 248.000000"
 preserveAspectRatio="xMidYMid meet">

<g transform="translate(0.000000,248.000000) scale(0.100000,-0.100000)"
fill="#000000" stroke="none">
<path d="M440 2342 c0 -73 4 -112 11 -112 7 0 8 34 3 108 -3 59 -8 109 -10
111 -2 2 -4 -46 -4 -107z"/>
<path d="M618 2252 c-48 -31 -86 -61 -85 -67 1 -5 6 -9 10 -7 15 5 179 132
170 132 -4 -1 -47 -26 -95 -58z"/>
<path d="M240 2207 c0 -10 112 -38 127 -33 8 3 11 1 8 -4 -3 -6 -1 -10 4 -10
6 0 11 6 11 14 0 9 -19 16 -61 20 -33 4 -67 10 -75 13 -8 3 -14 3 -14 0z"/>
<path d="M440 2141 c0 -10 9 -30 20 -43 27 -36 117 -91 131 -82 7 4 9 3 6 -4
-4 -6 18 -24 50 -42 89 -50 139 -95 167 -152 29 -58 32 -92 14 -167 l-11 -51
-51 7 c-101 14 -100 14 -110 -44 l-8 -51 -47 -7 c-75 -11 -261 -91 -261 -112
0 -2 6 -1 13 3 7 4 8 3 4 -2 -5 -5 -15 -9 -22 -9 -17 0 -125 -92 -125 -106 0
-6 6 -7 13 -3 6 4 3 -2 -7 -14 -23 -26 -34 -29 -15 -4 11 14 10 13 -9 -2 -23
-20 -31 -43 -10 -30 7 4 8 3 4 -5 -4 -6 -12 -9 -17 -5 -12 7 -85 -145 -104
-221 -22 -85 -20 -244 4 -337 22 -84 77 -202 91 -193 5 3 12 0 16 -6 4 -8 3
-9 -4 -5 -18 11 -14 -10 5 -25 14 -12 16 -12 8 0 -5 9 -4 12 3 7 6 -4 9 -13 6
-20 -3 -7 27 -43 70 -83 85 -80 201 -143 306 -168 83 -19 237 -19 320 1 120
28 314 140 307 177 -1 7 3 11 10 10 38 -8 157 191 190 317 22 87 21 245 -1
330 -21 79 -76 194 -111 235 l-27 30 22 -32 c29 -44 19 -42 -16 4 -15 20 -22
33 -16 29 7 -4 12 -3 12 3 0 17 -118 116 -180 152 -81 45 -90 55 -89 92 l2 32
7 -35 c7 -34 7 -34 9 12 1 52 1 52 -86 63 l-51 7 5 91 c5 81 3 99 -17 145 -25
59 -123 157 -147 148 -8 -3 -12 -2 -9 3 4 5 -33 31 -80 57 -47 27 -101 66
-120 86 -37 41 -64 49 -64 19z m80 -44 c29 -26 44 -45 34 -41 -15 4 -13 1 6
-16 l25 -22 -33 19 c-18 10 -41 27 -50 38 -17 20 -17 20 6 1 40 -34 33 -11
-10 30 -23 22 -38 31 -35 21 4 -11 3 -16 -3 -12 -12 8 -13 38 -1 33 4 -1 32
-24 61 -51z m85 -65 c-3 -3 -11 0 -18 7 -9 10 -8 11 6 5 10 -3 15 -9 12 -12z
m85 -47 c0 -2 -7 -1 -17 2 -11 4 -14 3 -9 -5 5 -8 1 -10 -10 -5 -12 4 -14 8
-5 11 8 3 7 8 -6 18 -14 12 -11 11 15 -1 17 -8 32 -18 32 -20z m36 -46 c3 -6
-5 -3 -20 6 -14 10 -26 19 -26 22 0 7 39 -17 46 -28z m15 14 c13 -16 12 -17
-3 -4 -10 7 -18 15 -18 17 0 8 8 3 21 -13z m55 -45 l29 -33 -32 29 c-31 28
-38 36 -30 36 2 0 16 -15 33 -32z m-20 -10 l29 -33 -32 29 c-31 28 -38 36 -30
36 2 0 16 -15 33 -32z m60 -80 c5 -16 8 -18 15 -7 5 8 9 10 9 4 0 -33 -17 -30
-37 7 -13 23 -16 35 -8 28 8 -6 17 -21 21 -32z m30 -83 c1 -30 -3 -55 -7 -55
-10 0 -12 54 -3 88 4 12 7 22 8 22 1 0 2 -25 2 -55z m-9 -127 c-3 -8 -6 -5 -6
6 -1 11 2 17 5 13 3 -3 4 -12 1 -19z m-163 -5 c-5 -5 -12 -12 -16 -18 -4 -6
-8 -2 -8 8 0 9 7 17 17 17 9 0 12 -3 7 -7z m64 -10 c-10 -2 -26 -2 -35 0 -10
3 -2 5 17 5 19 0 27 -2 18 -5z m145 -20 c-7 -2 -19 -2 -25 0 -7 3 -2 5 12 5
14 0 19 -2 13 -5z m70 -10 c-7 -2 -21 -2 -30 0 -10 3 -4 5 12 5 17 0 24 -2 18
-5z m-306 -35 c-3 -7 -5 -2 -5 12 0 14 2 19 5 13 2 -7 2 -19 0 -25z m-47 -38
c-14 -4 -34 -8 -45 -8 -16 0 -15 2 5 8 14 4 34 8 45 8 16 0 15 -2 -5 -8z m-73
-16 c-3 -3 -12 -4 -19 -1 -8 3 -5 6 6 6 11 1 17 -2 13 -5z m-47 -14 c-8 -5
-19 -10 -25 -10 -5 0 -3 5 5 10 8 5 20 10 25 10 6 0 3 -5 -5 -10z m179 6 c-2
-2 -24 -6 -48 -9 -29 -4 -40 -2 -30 4 13 8 88 14 78 5z m149 -3 c-10 -2 -26
-2 -35 0 -10 3 -2 5 17 5 19 0 27 -2 18 -5z m30 -14 c-14 -9 56 -21 78 -13 14
4 16 3 5 -4 -11 -8 -9 -11 8 -17 11 -3 26 -3 32 1 7 4 9 3 6 -3 -8 -13 41 -36
55 -27 7 4 8 2 4 -4 -7 -12 29 -36 43 -28 5 3 15 -2 22 -12 13 -15 12 -16 -3
-3 -10 7 -18 12 -18 9 0 -2 28 -28 63 -57 l62 -54 -45 46 c-24 26 -42 47 -39
47 3 0 27 -23 54 -51 28 -29 44 -49 38 -45 -19 11 -16 -9 4 -25 11 -10 14 -10
9 -1 -11 18 -1 15 15 -5 12 -14 12 -16 0 -9 -9 6 -12 5 -9 -5 3 -8 10 -13 16
-12 5 1 9 -5 8 -15 0 -9 4 -16 9 -15 6 1 11 -6 12 -15 1 -9 13 -48 28 -87 23
-58 29 -90 32 -185 6 -131 -8 -204 -58 -302 -16 -32 -27 -63 -24 -68 3 -5 0
-12 -6 -16 -8 -5 -9 -3 -4 7 5 8 -25 -22 -67 -66 -125 -132 -250 -193 -419
-202 -179 -10 -327 42 -460 164 -41 37 -65 57 -55 45 27 -31 15 -28 -15 5 -13
14 -18 23 -11 19 18 -11 15 9 -5 25 -15 12 -16 12 -8 -1 5 -9 4 -12 -1 -7 -5
5 -9 14 -9 20 -1 7 -15 41 -33 77 -44 91 -62 170 -62 270 0 173 62 321 184
444 39 39 57 61 40 49 -31 -23 -80 -74 -122 -128 -13 -16 -19 -21 -14 -10 15
30 87 110 134 147 23 18 38 27 34 19 -6 -9 -5 -12 5 -9 8 3 13 10 12 16 -2 6
3 9 11 6 8 -3 17 0 22 7 5 8 3 10 -7 4 -8 -5 -11 -4 -6 0 4 5 15 10 25 11 9 1
48 14 87 29 38 14 94 30 125 34 63 9 233 9 218 0z m-399 -3 c-10 -9 -69 -36
-69 -32 0 7 52 35 64 36 5 0 7 -2 5 -4z m61 -16 c-8 -5 -19 -10 -25 -10 -5 0
-3 5 5 10 8 5 20 10 25 10 6 0 3 -5 -5 -10z m623 -63 c23 -20 17 -18 -23 9
-67 46 -87 64 -42 38 19 -10 48 -32 65 -47z m-118 33 c3 -6 -1 -7 -9 -4 -18 7
-21 14 -7 14 6 0 13 -4 16 -10z m-730 -60 c-16 -16 -32 -30 -37 -30 -8 0 53
59 61 60 3 0 -8 -13 -24 -30z m915 -25 c13 -14 21 -25 18 -25 -2 0 -15 11 -28
25 -13 14 -21 25 -18 25 2 0 15 -11 28 -25z m-1050 -135 c-6 -11 -13 -20 -16
-20 -2 0 0 9 6 20 6 11 13 20 16 20 2 0 0 -9 -6 -20z m1175 -41 c9 -17 15 -33
13 -35 -3 -2 -12 12 -21 31 -21 43 -13 47 8 4z m-1224 -56 c-12 -20 -14 -14
-5 12 4 9 9 14 11 11 3 -2 0 -13 -6 -23z m30 -20 c-12 -20 -14 -14 -5 12 4 9
9 14 11 11 3 -2 0 -13 -6 -23z m1199 -28 c0 -5 -5 -3 -10 5 -5 8 -10 20 -10
25 0 6 5 3 10 -5 5 -8 10 -19 10 -25z m39 -15 c0 -10 -3 -8 -9 5 -12 27 -12
43 0 25 5 -8 9 -22 9 -30z m-1292 -12 c-3 -8 -6 -5 -6 6 -1 11 2 17 5 13 3 -3
4 -12 1 -19z m1272 -38 c0 -10 -3 -8 -9 5 -12 27 -12 43 0 25 5 -8 9 -22 9
-30z m28 8 c-3 -8 -6 -5 -6 6 -1 11 2 17 5 13 3 -3 4 -12 1 -19z m-1310 -10
c-3 -8 -6 -5 -6 6 -1 11 2 17 5 13 3 -3 4 -12 1 -19z m30 -20 c-3 -8 -6 -5 -6
6 -1 11 2 17 5 13 3 -3 4 -12 1 -19z m1290 -35 c-3 -10 -5 -4 -5 12 0 17 2 24
5 18 2 -7 2 -21 0 -30z m-1330 -5 c-3 -7 -5 -2 -5 12 0 14 2 19 5 13 2 -7 2
-19 0 -25z m1300 -15 c-3 -10 -5 -2 -5 17 0 19 2 27 5 18 2 -10 2 -26 0 -35z
m-1270 -110 c-2 -27 -3 -5 -3 47 0 52 1 74 3 48 2 -27 2 -69 0 -95z m1310 25
c-3 -7 -5 -2 -5 12 0 14 2 19 5 13 2 -7 2 -19 0 -25z m-46 -99 l-11 -34 5 34
c3 18 6 45 6 60 l2 26 4 -26 c2 -15 -1 -42 -6 -60z m-1294 24 c-3 -10 -5 -2
-5 17 0 19 2 27 5 18 2 -10 2 -26 0 -35z m1330 -10 c-3 -10 -5 -2 -5 17 0 19
2 27 5 18 2 -10 2 -26 0 -35z m-1290 -25 c-3 -8 -6 -5 -6 6 -1 11 2 17 5 13 3
-3 4 -12 1 -19z m-30 -20 c-3 -8 -6 -5 -6 6 -1 11 2 17 5 13 3 -3 4 -12 1 -19z
m1310 0 c-3 -8 -6 -5 -6 6 -1 11 2 17 5 13 3 -3 4 -12 1 -19z m-1249 -73 c0
-5 -6 4 -13 20 -8 17 -14 37 -14 45 0 8 7 -1 14 -20 7 -19 13 -39 13 -45z m27
-55 c9 -16 13 -30 11 -30 -3 0 -12 14 -21 30 -9 17 -13 30 -11 30 3 0 12 -13
21 -30z m-20 -40 c9 -16 13 -30 11 -30 -3 0 -12 14 -21 30 -9 17 -13 30 -11
30 3 0 12 -13 21 -30z m1145 10 c-6 -11 -13 -20 -16 -20 -2 0 0 9 6 20 6 11
13 20 16 20 2 0 0 -9 -6 -20z m20 -40 c-6 -11 -13 -20 -16 -20 -2 0 0 9 6 20
6 11 13 20 16 20 2 0 0 -9 -6 -20z m-60 -23 c0 -2 -10 -12 -22 -23 l-23 -19
19 23 c18 21 26 27 26 19z m22 -34 c-11 -16 -30 -37 -43 -48 -12 -11 -5 1 16
28 43 52 57 63 27 20z m-927 -141 c17 -13 10 -10 -15 7 -25 16 -63 49 -85 72
-39 42 -38 42 15 -6 31 -28 69 -60 85 -73z m855 115 c0 -2 -10 -12 -22 -23
l-23 -19 19 23 c18 21 26 27 26 19z m-874 -49 l29 -32 -32 25 c-18 13 -32 27
-32 32 -1 12 4 8 35 -25z m809 -8 c-3 -5 -20 -19 -38 -30 -32 -22 -32 -22 3 9
37 32 45 37 35 21z m55 -3 c0 -2 -10 -12 -22 -23 l-23 -19 19 23 c18 21 26 27
26 19z m-780 -54 c0 -7 -39 17 -46 28 -3 6 5 3 20 -6 14 -10 26 -19 26 -22z
m725 7 c-3 -5 -16 -15 -28 -21 -19 -9 -19 -8 3 10 28 23 34 26 25 11z m-75 -5
c0 -6 -56 -35 -67 -35 -4 1 8 9 27 20 39 22 40 22 40 15z m-631 -51 c14 -12
-19 -1 -35 12 -18 14 -18 14 6 3 14 -6 27 -13 29 -15z m651 21 c0 -6 -76 -45
-87 -45 -4 1 12 12 37 25 50 27 50 27 50 20z m-545 -25 c13 -6 15 -9 5 -9 -8
0 -22 4 -30 9 -18 12 -2 12 25 0z m400 -5 c-16 -8 -37 -14 -45 -14 -8 0 1 7
20 14 46 18 64 17 25 0z m-470 -13 c-3 -3 -11 0 -18 7 -9 10 -8 11 6 5 10 -3
15 -9 12 -12z m162 -8 c-3 -3 -12 -4 -19 -1 -8 3 -5 6 6 6 11 1 17 -2 13 -5z
m236 -1 c-7 -2 -19 -2 -25 0 -7 3 -2 5 12 5 14 0 19 -2 13 -5z m-90 -10 c-24
-2 -62 -2 -85 0 -24 2 -5 4 42 4 47 0 66 -2 43 -4z m-206 -9 c-3 -3 -12 -4
-19 -1 -8 3 -5 6 6 6 11 1 17 -2 13 -5z m40 -10 c-3 -3 -12 -4 -19 -1 -8 3 -5
6 6 6 11 1 17 -2 13 -5z m270 0 c-3 -3 -12 -4 -19 -1 -8 3 -5 6 6 6 11 1 17
-2 13 -5z m-159 -11 c-15 -2 -42 -2 -60 0 -18 2 -6 4 27 4 33 0 48 -2 33 -4z
m100 0 c-10 -2 -28 -2 -40 0 -13 2 -5 4 17 4 22 1 32 -1 23 -4z"/>
<path d="M593 1361 c-84 -23 -156 -58 -148 -71 3 -5 0 -7 -8 -4 -19 7 -140
-104 -133 -122 3 -7 0 -16 -6 -20 -7 -4 -8 -3 -4 4 4 7 5 12 2 12 -13 0 -57
-83 -52 -96 3 -8 2 -13 -3 -10 -10 6 -24 -25 -42 -94 -18 -66 -15 -205 5 -275
21 -73 70 -167 100 -192 21 -18 21 -18 5 2 -18 23 -37 56 -23 40 43 -47 66
-77 52 -66 -26 20 -22 -2 5 -27 26 -24 42 -29 31 -9 -4 6 2 3 14 -7 26 -23 29
-34 5 -15 -14 11 -14 9 1 -9 11 -12 26 -20 33 -17 8 2 11 0 8 -5 -3 -5 17 -21
44 -35 158 -80 374 -74 526 14 67 39 157 120 151 137 -3 7 0 16 6 20 7 5 8 2
4 -7 -4 -8 0 -5 9 6 10 11 33 52 52 91 137 284 -11 630 -315 741 -94 35 -222
40 -319 14z m165 2 c-15 -2 -42 -2 -60 0 -18 2 -6 4 27 4 33 0 48 -2 33 -4z
m-121 -9 c-3 -3 -12 -4 -19 -1 -8 3 -5 6 6 6 11 1 17 -2 13 -5z m210 0 c-3 -3
-12 -4 -19 -1 -8 3 -5 6 6 6 11 1 17 -2 13 -5z m133 -44 c22 -11 40 -23 40
-25 0 -5 -79 32 -89 41 -11 10 14 2 49 -16z m-170 -39 c0 -49 -8 -71 -26 -71
-17 0 -19 46 -4 84 14 38 30 31 30 -13z m-380 6 c0 -1 -28 -26 -62 -56 l-63
-53 59 56 c55 52 66 61 66 53z m168 -18 c3 -11 1 -11 -7 1 -15 22 -13 -2 4
-43 14 -33 12 -47 -7 -47 -13 0 -50 88 -43 100 9 14 48 6 53 -11z m229 -16
c-3 -10 -5 -4 -5 12 0 17 2 24 5 18 2 -7 2 -21 0 -30z m293 -39 c28 -31 24
-29 -20 10 -74 66 -80 73 -45 48 17 -11 46 -37 65 -58z m-580 31 c0 -5 -5 -3
-10 5 -5 8 -10 20 -10 25 0 6 5 3 10 -5 5 -8 10 -19 10 -25z m217 -22 c-3 -10
-5 -2 -5 17 0 19 2 27 5 18 2 -10 2 -26 0 -35z m-137 -8 c0 -5 -5 -3 -10 5 -5
8 -10 20 -10 25 0 6 5 3 10 -5 5 -8 10 -19 10 -25z m410 -11 c0 -7 -4 -16 -10
-19 -15 -9 -12 -27 3 -19 6 4 4 -1 -5 -12 -23 -27 -64 -29 -71 -4 -3 11 2 25
12 32 15 12 15 11 1 -7 -15 -20 -15 -20 8 -1 12 11 21 25 18 32 -6 17 2 23 25
17 10 -3 19 -11 19 -19z m150 -65 c15 -28 5 -23 -15 7 -9 15 -12 23 -6 20 6
-4 16 -16 21 -27z m-792 5 c6 3 16 -2 23 -12 13 -16 12 -16 -6 -2 -20 15 -20
14 -1 -8 20 -23 42 -31 30 -9 -4 6 -3 9 1 4 18 -15 15 -47 -5 -57 -15 -8 -20
-8 -18 1 2 6 -3 14 -11 17 -9 3 -11 0 -6 -9 5 -8 -1 -6 -13 5 -12 10 -19 22
-17 27 3 4 1 10 -4 14 -5 3 -9 14 -8 25 1 14 4 16 14 9 7 -6 16 -8 21 -5z
m-108 -24 c-6 -11 -13 -20 -16 -20 -2 0 0 9 6 20 6 11 13 20 16 20 2 0 0 -9
-6 -20z m940 -54 c0 -12 -5 -7 -19 24 -11 24 -11 24 3 6 9 -11 16 -24 16 -30z
m-170 20 c0 -2 -7 -7 -16 -10 -8 -3 -12 -2 -9 4 6 10 25 14 25 6z m30 -7 c0
-5 5 -7 12 -3 25 16 -5 -17 -54 -58 -29 -23 -49 -37 -44 -30 15 25 -10 10 -59
-35 l-50 -46 48 37 c63 50 60 39 -5 -16 -29 -23 -49 -37 -44 -30 14 23 -10 12
-35 -15 l-24 -28 25 20 25 20 -18 -21 c-12 -14 -25 -20 -39 -16 -18 4 -19 2
-9 -16 14 -26 14 -42 0 -22 -9 12 -10 11 -6 -7 6 -28 -5 -36 -56 -41 -30 -2
-46 2 -66 20 l-26 23 20 -24 c14 -17 16 -25 7 -28 -6 -3 -10 -9 -7 -13 3 -5 0
-12 -6 -16 -8 -4 -9 -3 -5 4 11 18 -10 14 -25 -5 -12 -14 -12 -16 0 -8 9 5 12
4 7 -3 -4 -6 -13 -9 -20 -6 -8 3 -17 0 -22 -7 -5 -8 -3 -10 6 -4 9 5 11 4 6
-4 -4 -6 -12 -9 -17 -6 -5 4 -17 1 -26 -5 -16 -10 -16 -11 2 -5 17 5 18 4 7
-7 -11 -11 -17 -8 -37 14 -21 25 -25 68 -6 68 3 0 17 10 31 21 14 11 19 17 11
13 -9 -4 -12 -3 -7 4 4 6 13 9 20 6 8 -3 17 0 22 7 5 8 3 10 -6 4 -8 -5 -11
-4 -7 2 4 6 18 9 33 7 24 -2 26 0 22 31 -2 19 -1 33 2 32 3 -1 16 6 30 16 13
9 20 17 14 17 -5 0 -15 -4 -22 -10 -9 -7 -9 -7 -2 2 6 7 28 13 50 13 22 1 35
-2 29 -6 -7 -4 -5 -9 6 -12 9 -4 13 -3 10 3 -3 5 13 19 35 30 24 12 38 25 34
32 -4 7 -3 8 4 4 14 -9 164 73 157 85 -4 5 0 6 7 4 8 -3 22 1 33 9 24 18 35
20 35 5z m-90 -24 c0 -2 -13 -11 -30 -20 -38 -19 -40 -11 -2 9 31 17 32 18 32
11z m150 -20 c-46 -18 -64 -17 -25 0 17 8 37 14 45 14 8 0 -1 -7 -20 -14z m40
-19 c0 -14 -67 -46 -95 -46 -8 0 -15 8 -16 18 0 14 -2 14 -9 -3 -7 -15 -9 -16
-9 -4 -1 9 7 23 16 30 11 10 14 10 9 2 -9 -16 -6 -16 35 2 43 18 69 19 69 1z
m69 -36 c0 -9 -4 -8 -9 5 -5 11 -9 27 -9 35 0 9 4 8 9 -5 5 -11 9 -27 9 -35z
m-329 35 c0 -2 -13 -11 -30 -20 -38 -19 -40 -11 -2 9 31 17 32 18 32 11z
m-703 -47 c-3 -8 -6 -5 -6 6 -1 11 2 17 5 13 3 -3 4 -12 1 -19z m948 12 c-3
-5 -12 -10 -18 -10 -7 0 -6 4 3 10 19 12 23 12 15 0z m-335 -15 c0 -2 -10 -9
-22 -15 -22 -11 -22 -10 -4 4 21 17 26 19 26 11z m290 -5 c-8 -5 -24 -9 -35
-9 -16 1 -16 2 5 9 35 11 48 11 30 0z m137 -32 c-3 -7 -5 -2 -5 12 0 14 2 19
5 13 2 -7 2 -19 0 -25z m-1050 -25 c-3 -10 -5 -2 -5 17 0 19 2 27 5 18 2 -10
2 -26 0 -35z m131 30 c-10 -2 -26 -2 -35 0 -10 3 -2 5 17 5 19 0 27 -2 18 -5z
m28 -26 c3 -3 3 -11 -1 -18 -5 -7 -23 -9 -52 -5 -56 7 -67 14 -54 30 11 13 93
7 107 -7z m901 -84 c-2 -16 -4 -5 -4 22 0 28 2 40 4 28 2 -13 2 -35 0 -50z
m-970 51 c-3 -3 -12 -4 -19 -1 -8 3 -5 6 6 6 11 1 17 -2 13 -5z m56 -11 c-7
-2 -21 -2 -30 0 -10 3 -4 5 12 5 17 0 24 -2 18 -5z m810 -50 c-7 -2 -19 -2
-25 0 -7 3 -2 5 12 5 14 0 19 -2 13 -5z m31 -15 c-2 -3 1 -8 8 -10 7 -3 8 -10
3 -17 -5 -9 -21 -12 -52 -7 -55 7 -67 14 -54 29 10 12 102 17 95 5z m-639 -18
c-3 -5 -12 -10 -18 -10 -7 0 -6 4 3 10 19 12 23 12 15 0z m-348 -42 c-3 -7 -5
-2 -5 12 0 14 2 19 5 13 2 -7 2 -19 0 -25z m1050 0 c-3 -7 -5 -2 -5 12 0 14 2
19 5 13 2 -7 2 -19 0 -25z m-514 15 c-7 -2 -21 -2 -30 0 -10 3 -4 5 12 5 17 0
24 -2 18 -5z m450 -10 c-7 -2 -21 -2 -30 0 -10 3 -4 5 12 5 17 0 24 -2 18 -5z
m-803 -44 c0 -13 -87 -52 -100 -44 -19 12 -10 25 30 41 22 9 37 21 34 26 -4 6
3 5 15 -1 11 -7 21 -16 21 -22z m-163 -31 c-3 -8 -6 -5 -6 6 -1 11 2 17 5 13
3 -3 4 -12 1 -19z m143 -8 c-8 -5 -19 -10 -25 -10 -5 0 -3 5 5 10 8 5 20 10
25 10 6 0 3 -5 -5 -10z m-111 -65 c0 -5 -6 1 -14 15 -8 14 -14 30 -14 35 0 6
6 -1 14 -15 8 -14 14 -29 14 -35z m71 51 c0 -2 -7 -7 -16 -10 -8 -3 -12 -2 -9
4 6 10 25 14 25 6z m731 -23 c12 -16 12 -17 -1 -7 -8 6 -22 14 -30 17 -13 5
-12 6 1 6 9 1 23 -7 30 -16z m-1 -18 c15 -18 34 -20 24 -2 -6 9 -5 9 7 0 23
-19 22 -60 -2 -66 -15 -4 -32 5 -57 30 -21 19 -31 32 -24 28 7 -4 12 0 12 9 0
20 24 21 40 1z m130 -45 c-6 -11 -13 -20 -16 -20 -2 0 0 9 6 20 6 11 13 20 16
20 2 0 0 -9 -6 -20z m-685 -34 c1 -15 -6 -32 -15 -39 -13 -11 -13 -10 -1 8 7
11 2 8 -12 -7 -14 -16 -31 -28 -36 -28 -15 0 -7 58 9 73 12 10 12 9 1 -8 -7
-11 -3 -8 10 7 29 32 44 30 44 -6z m382 -12 c-3 -3 -12 -4 -19 -1 -8 3 -5 6 6
6 11 1 17 -2 13 -5z m-33 -49 c5 -22 4 -26 -4 -15 -5 8 -10 24 -10 34 0 26 6
18 14 -19z m36 23 c0 -9 3 -9 9 1 7 10 9 8 9 -10 0 -13 3 -41 5 -62 6 -39 6
-39 -15 -20 -11 10 -23 18 -26 18 -3 0 -7 19 -9 43 -1 31 2 42 12 42 8 0 15
-6 15 -12z m-200 -40 c0 -48 -10 -78 -26 -78 -15 0 -18 28 -8 79 9 42 34 41
34 -1z m402 -6 c-23 -21 -57 -46 -75 -55 -31 -17 -31 -17 -7 0 13 10 45 35 70
55 59 48 67 48 12 0z m-385 -19 c-3 -10 -5 -2 -5 17 0 19 2 27 5 18 2 -10 2
-26 0 -35z m232 -13 c0 -10 -3 -8 -9 5 -12 27 -12 43 0 25 5 -8 9 -22 9 -30z
m-423 -58 c-5 -4 -66 26 -66 33 0 3 16 -3 35 -12 19 -9 33 -18 31 -21z m434
-1 c-8 -5 -26 -11 -40 -15 -21 -5 -20 -3 5 9 32 15 60 20 35 6z m-390 -11 c8
-5 11 -10 5 -10 -5 0 -17 5 -25 10 -8 5 -10 10 -5 10 6 0 17 -5 25 -10z m57
-16 c-3 -3 -12 -4 -19 -1 -8 3 -5 6 6 6 11 1 17 -2 13 -5z m56 -11 c-7 -2 -21
-2 -30 0 -10 3 -4 5 12 5 17 0 24 -2 18 -5z m145 0 c-10 -2 -26 -2 -35 0 -10
3 -2 5 17 5 19 0 27 -2 18 -5z"/>
<path d="M1034 1024 l-39 -36 43 32 c37 28 49 40 39 40 -2 0 -21 -16 -43 -36z"/>
<path d="M712 833 c2 -10 10 -18 18 -18 8 0 16 8 18 18 2 12 -3 17 -18 17 -15
0 -20 -5 -18 -17z m28 -3 c0 -5 -4 -10 -10 -10 -5 0 -10 5 -10 10 0 6 5 10 10
10 6 0 10 -4 10 -10z"/>
<path d="M540 702 c6 -13 14 -21 18 -18 3 4 -2 14 -12 24 -18 16 -18 16 -6 -6z"/>
<path d="M1029 567 c14 -18 51 -42 51 -33 0 3 -15 15 -32 27 -24 17 -29 18
-19 6z"/>
<path d="M397 2063 c-17 -29 -35 -84 -25 -75 23 19 49 70 39 76 -5 4 -12 3
-14 -1z"/>
</g>
</svg>
